<?xml version="1.0" standalone="no"?>
<!DOCTYPE svg PUBLIC "-//W3C//DTD SVG 20010904//EN"
 "http://www.w3.org/TR/2001/REC-SVG-20010904/DTD/svg10.dtd">
<svg version="1.0" xmlns="http://www.w3.org/2000/svg"
 width="472.000000pt" height="472.000000pt" viewBox="0 0 472.000000 472.000000"
 preserveAspectRatio="xMidYMid meet">
<metadata>
Created by potrace 1.11, written by Peter Selinger 2001-2013
</metadata>
<g transform="translate(0.000000,472.000000) scale(0.100000,-0.100000)"
fill="#000000" stroke="none">
<path d="M2322 4686 c-19 -21 -68 -138 -77 -186 -11 -57 -267 -789 -296 -845
-5 -12 -11 -27 -13 -35 -3 -14 -10 -34 -40 -110 -27 -68 -48 -126 -68 -185
-22 -68 -29 -77 -60 -82 -12 -2 -49 -11 -82 -19 -34 -9 -68 -18 -76 -20 -8 -1
-43 -12 -77 -22 -34 -11 -64 -17 -67 -14 -3 3 -6 -1 -6 -8 0 -7 -3 -11 -6 -7
-4 3 -19 0 -35 -9 -16 -8 -31 -14 -34 -14 -3 0 -7 -1 -10 -1 -3 -1 -8 -2 -12
-3 -5 -1 -24 -9 -43 -18 -19 -8 -52 -20 -72 -27 -21 -7 -38 -17 -38 -22 0 -5
-3 -8 -7 -7 -13 4 -73 -24 -73 -33 0 -5 -9 -9 -20 -9 -11 0 -20 -4 -20 -8 0
-4 -20 -18 -45 -30 -25 -12 -45 -26 -45 -32 0 -5 -6 -10 -12 -10 -7 0 -30 -16
-51 -35 -21 -19 -41 -35 -44 -35 -3 0 -14 -10 -24 -22 -11 -11 -19 -18 -19
-15 0 3 -22 -16 -50 -43 -27 -27 -50 -46 -50 -42 0 4 -8 -5 -18 -21 -10 -15
-22 -24 -25 -20 -4 3 -7 1 -7 -5 0 -6 -12 -23 -27 -39 -66 -67 -123 -137 -123
-150 0 -7 -4 -13 -9 -13 -4 0 -31 -45 -60 -100 -29 -55 -49 -100 -45 -100 3 0
2 -6 -3 -12 -35 -45 -80 -246 -81 -358 -1 -187 79 -445 187 -605 17 -25 31
-50 31 -55 0 -4 3 -10 7 -12 9 -4 73 -84 73 -92 0 -7 97 -112 167 -180 34 -34
116 -104 182 -156 80 -64 120 -102 120 -115 1 -21 -36 -166 -84 -335 -15 -52
-29 -102 -31 -110 -2 -8 -10 -40 -18 -70 -37 -136 -39 -174 -11 -178 17 -2 35
29 117 195 53 109 124 246 157 305 34 59 61 112 61 118 0 16 19 12 131 -25
131 -45 328 -97 488 -130 228 -47 598 -51 861 -10 134 22 250 47 256 57 3 5 9
6 13 3 14 -8 203 53 328 105 64 28 121 50 125 50 5 0 11 -8 15 -17 12 -35 96
-229 123 -283 143 -292 191 -380 209 -380 46 0 45 18 -19 272 -34 134 -63 252
-66 263 -2 11 -6 29 -8 40 -2 11 -13 58 -24 105 -37 161 -38 151 18 184 27 16
59 39 72 51 13 12 31 26 42 32 61 34 306 291 306 321 0 6 4 12 9 14 14 5 108
187 130 253 39 117 53 214 54 365 0 81 -5 169 -12 200 -38 165 -125 369 -195
452 -121 145 -224 249 -296 298 -19 13 -37 27 -40 30 -9 11 -129 90 -136 90
-4 0 -15 6 -23 14 -23 19 -186 105 -208 109 -18 4 -30 8 -68 23 -11 4 -24 8
-30 9 -5 0 -15 4 -21 7 -6 4 -21 9 -35 12 -13 3 -48 14 -78 25 -30 11 -57 19
-59 16 -3 -3 -11 0 -17 5 -7 6 -48 21 -91 34 l-77 23 -21 59 c-12 32 -24 61
-29 62 -4 2 -5 8 -1 13 3 5 0 9 -5 9 -6 0 -10 3 -9 8 3 16 -15 62 -25 62 -6 0
-7 3 -4 6 3 4 1 16 -5 28 -7 11 -13 23 -14 26 -2 11 -18 48 -47 110 -17 36
-32 72 -33 81 -2 8 -10 29 -19 45 -8 16 -15 35 -15 42 0 6 -4 12 -8 12 -5 0
-9 6 -9 13 0 6 -8 30 -18 52 -10 22 -19 42 -20 45 -2 3 -6 15 -10 28 -4 12
-11 22 -16 22 -5 0 -5 7 -2 17 4 11 3 14 -6 9 -8 -5 -11 -3 -10 5 1 8 -3 27
-9 42 -7 16 -12 33 -12 38 0 5 -5 9 -11 9 -5 0 -7 4 -4 10 3 5 -1 21 -10 34
-9 14 -16 27 -16 30 1 10 -10 41 -47 131 -11 28 -30 75 -42 105 -11 30 -25 64
-30 75 -5 11 -23 58 -41 103 -48 125 -78 152 -117 108z"/>
</g>
</svg>
